{
  "accessors": [
    {
      "bufferView": 3,
      "componentType": 5126,
      "count": 10973,
      "max": [
        280.4356994628906,
        -0.542909562587738,
        101.07403564453125
      ],
      "min": [
        -113.96302032470703,
        -1091.4053955078125,
        -101.07402038574219
      ],
      "type": "VEC3"
    },
    {
      "bufferView": 3,
      "byteOffset": 131676,
      "componentType": 5126,
      "count": 10973,
      "max": [
        0.9999815821647644,
        0.9999998211860657,
        1.0
      ],
      "min": [
        -1.0,
        -1.0,
        -1.0
      ],
      "type": "VEC3"
    },
    {
      "bufferView": 2,
      "componentType": 5126,
      "count": 10973,
      "max": [
        0.9731656312942505,
        1.0052076578140259
      ],
      "min": [
        0.0020000000949949026,
        0.44520992040634155
      ],
      "type": "VEC2"
    },
    {
      "bufferView": 1,
      "componentType": 5125,
      "count": 59004,
      "type": "SCALAR"
    },
    {
      "bufferView": 5,
      "componentType": 5126,
      "count": 10,
      "max": [
        1.0,
        0.0,
        6.525614821839554e-07,
        0.0,
        1.1254774332046509,
        1.0,
        2.6154310717174667e-07,
        0.0,
        1.3420283551113243e-07,
        0.0,
        1.0,
        0.0,
        1241.8450927734375,
        129.8877716064453,
        7.101996743585914e-05,
        1.0
      ],
      "min": [
        -1.1257750988006592,
        -1.1254775524139404,
        0.0,
        0.0,
        0.0,
        -1.1257749795913696,
        0.0,
        0.0,
        -6.475104896708217e-08,
        -6.900948505972337e-07,
        -1.1257750988006592,
        0.0,
        0.0,
        -564.4146118164063,
        -2.8249050956219435e-05,
        1.0
      ],
      "type": "MAT4"
    },
    {
      "bufferView": 0,
      "componentType": 5123,
      "count": 10973,
      "type": "VEC4"
    },
    {
      "bufferView": 4,
      "componentType": 5126,
      "count": 10973,
      "max": [
        1.0,
        0.5,
        0.0,
        0.0
      ],
      "min": [
        0.5,
        0.0,
        0.0,
        0.0
      ],
      "type": "VEC4"
    }
  ],
  "asset": {
    "extras": {
      "author": "Kenzie Leedell-Clarke (https://sketchfab.com/KenzieL-C)",
      "license": "CC-BY-4.0 (http://creativecommons.org/licenses/by/4.0/)",
      "source": "https://sketchfab.com/3d-models/human-spine-57c71ac4134e40be9506be639a29c9a4",
      "title": "Human Spine"
    },
    "generator": "Sketchfab-15.25.0",
    "version": "2.0"
  },
  "bufferViews": [
    {
      "buffer": 0,
      "byteLength": 87784,
      "byteStride": 8,
      "name": "shortBufferViews",
      "target": 34962
    },
    {
      "buffer": 0,
      "byteLength": 236016,
      "byteOffset": 87784,
      "name": "floatBufferViews",
      "target": 34963
    },
    {
      "buffer": 0,
      "byteLength": 87784,
      "byteOffset": 323800,
      "byteStride": 8,
      "name": "floatBufferViews",
      "target": 34962
    },
    {
      "buffer": 0,
      "byteLength": 263352,
      "byteOffset": 411584,
      "byteStride": 12,
      "name": "floatBufferViews",
      "target": 34962
    },
    {
      "buffer": 0,
      "byteLength": 175568,
      "byteOffset": 674936,
      "byteStride": 16,
      "name": "floatBufferViews",
      "target": 34962
    },
    {
      "buffer": 0,
      "byteLength": 640,
      "byteOffset": 850504,
      "name": "floatBufferViews"
    }
  ],
  "buffers": [
    {
      "byteLength": 851144,
      "uri": "scene.bin"
    }
  ],
  "materials": [
    {
      "doubleSided": true,
      "name": "Scene_-_Root",
      "pbrMetallicRoughness": {
        "metallicFactor": 0.0,
        "roughnessFactor": 0.6
      }
    }
  ],
  "meshes": [
    {
      "name": "Spine_C7__0",
      "primitives": [
        {
          "attributes": {
            "JOINTS_0": 5,
            "NORMAL": 1,
            "POSITION": 0,
            "TEXCOORD_0": 2,
            "WEIGHTS_0": 6
          },
          "indices": 3,
          "material": 0,
          "mode": 4
        }
      ]
    }
  ],
  "nodes": [
    {
      "children": [
        1
      ],
      "matrix": [
        1.0,
        0.0,
        0.0,
        0.0,
        0.0,
        2.220446049250313e-16,
        -1.0,
        0.0,
        0.0,
        1.0,
        2.220446049250313e-16,
        0.0,
        0.0,
        0.0,
        0.0,
        1.0
      ],
      "name": "Sketchfab_model"
    },
    {
      "children": [
        2
      ],
      "matrix": [
        1.0,
        0.0,
        0.0,
        0.0,
        0.0,
        0.0,
        1.0,
        0.0,
        0.0,
        -1.0,
        0.0,
        0.0,
        0.0,
        0.0,
        0.0,
        1.0
      ],
      "name": "5e09221f3963482cb79533f9b36c627a.fbx"
    },
    {
      "children": [
        3
      ],
      "name": "RootNode"
    },
    {
      "children": [
        4,
        6,
        5
      ],
      "name": "Object_3"
    },
    {
      "children": [
        7
      ],
      "name": "_rootJoint"
    },
    {
      "matrix": [
        -1.0578825473785398,
        -0.38503772020339977,
        2.117582368135751e-22,
        0.0,
        -6.191898136657746e-17,
        1.7012040096339684e-16,
        -1.1257749795913696,
        0.0,
        -0.3850377202033998,
        1.05788254737854,
        1.8103844040742357e-16,
        0.0,
        -289.5522446249476,
        1169.5323445973106,
        -37.7641191252074,
        1.0
      ],
      "name": "Object_5"
    },
    {
      "mesh": 0,
      "name": "Object_6",
      "skin": 0
    },
    {
      "children": [
        8
      ],
      "name": "Spine_01_00",
      "rotation": [
        -0.45055699348449707,
        0.5449754595756531,
        -0.4505573511123657,
        0.5449756383895874
      ],
      "translation": [
        0.0,
        1212.3349609375,
        80.6339111328125
      ]
    },
    {
      "children": [
        9
      ],
      "name": "Spine_02_01",
      "rotation": [
        -2.582254410299356e-07,
        2.3875340815493473e-08,
        0.3070681095123291,
        0.9516875147819519
      ],
      "scale": [
        1.0000001192092896,
        1.0000001192092896,
        1.0
      ],
      "translation": [
        221.73309326171875,
        -0.0024261474609375,
        3.6921119317412376e-06
      ]
    },
    {
      "children": [
        10
      ],
      "name": "Spine_03_02",
      "rotation": [
        5.164791705425387e-09,
        3.189643749124116e-08,
        -0.15984198451042175,
        0.9871426224708557
      ],
      "scale": [
        0.9999998807907104,
        0.9999998807907104,
        1.0
      ],
      "translation": [
        151.027587890625,
        6.103515625e-05,
        2.9103830456733704e-11
      ]
    },
    {
      "children": [
        11
      ],
      "name": "Spine_04_03",
      "rotation": [
        3.873336825159935e-15,
        6.525651516413799e-15,
        -0.17597568035125732,
        0.9843946099281311
      ],
      "translation": [
        172.78326416015625,
        0.0,
        3.346940502524376e-10
      ]
    },
    {
      "children": [
        12
      ],
      "name": "Spine_05_04",
      "rotation": [
        -1.8815344027684746e-15,
        7.25451701477902e-15,
        -0.06982790678739548,
        0.9975590705871582
      ],
      "scale": [
        1.000000238418579,
        1.000000238418579,
        1.0
      ],
      "translation": [
        173.79937744140625,
        2.842170943040401e-14,
        2.574706741143018e-06
      ]
    },
    {
      "children": [
        13
      ],
      "name": "Spine_06_05",
      "rotation": [
        -5.12037769362329e-15,
        1.4767318515614873e-15,
        -0.27710863947868347,
        0.9608386158943176
      ],
      "scale": [
        0.9999997615814209,
        0.9999997615814209,
        1.0
      ],
      "translation": [
        138.1728515625,
        3.0517578125e-05,
        3.6023411666974425e-06
      ]
    },
    {
      "children": [
        14
      ],
      "name": "Spine_07_06",
      "rotation": [
        -2.2028834563637056e-15,
        -7.632571536061138e-15,
        0.1816530078649521,
        0.9833627939224243
      ],
      "scale": [
        1.000000238418579,
        1.000000238418579,
        1.0
      ],
      "translation": [
        161.75860595703125,
        -3.0517578125e-05,
        1.036759203998372e-05
      ]
    },
    {
      "children": [
        15
      ],
      "name": "Spine_08_07",
      "rotation": [
        -4.525972041591331e-09,
        1.0719212184540083e-08,
        0.38897839188575745,
        0.9212470054626465
      ],
      "scale": [
        0.9999998211860657,
        0.9999998211860657,
        1.0
      ],
      "translation": [
        148.05445861816406,
        5.53131103515625e-05,
        6.0630845837295055e-06
      ]
    },
    {
      "name": "Spine_09_08",
      "rotation": [
        1.7763568394002505e-15,
        -1.6543612251060553e-23,
        -1.4901161193847656e-08,
        1.0
      ],
      "translation": [
        128.7263641357422,
        -2.842170943040401e-14,
        -7.275957614183426e-12
      ]
    }
  ],
  "scene": 0,
  "scenes": [
    {
      "name": "Sketchfab_Scene",
      "nodes": [
        0
      ]
    }
  ],
  "skins": [
    {
      "inverseBindMatrices": 4,
      "joints": [
        4,
        7,
        8,
        9,
        10,
        11,
        12,
        13,
        14,
        15
      ],
      "skeleton": 4
    }
  ]
}
